<?xml version="1.0" encoding="UTF-8" standalone="yes"?>
<svg xmlns="http://www.w3.org/2000/svg" xmlns:xlink="http://www.w3.org/1999/xlink" width="96px" height="96px" viewBox="0 0 96 96" version="1.1" fill="#000000">
  <g id="surface103538">
    <path style=" stroke:none;fill-rule:nonzero;fill:#000000;fill-opacity:1;" d="M 47.375 0.375 C 33.3125 1.609375 33.875 28.421875 16.375 34.375 C 1.171875 39.578125 -0.828125 51.65625 0.375 59.25 C 0.375 60.84375 1.578125 64.78125 6.375 62.375 C 23.96875 53.96875 46.40625 43.546875 52 14.75 C 51.203125 47.546875 24.375 61.171875 8.375 66.375 C 1.96875 68.375 6.796875 72.453125 8 73.25 C 20.796875 79.65625 43.546875 75.203125 54.75 60 C 75.953125 32 68.375 6.421875 54.375 1.625 C 51.671875 0.625 49.375 0.203125 47.375 0.375 Z M 74.25 52 C 72.546875 51.96875 70.65625 52.078125 68.75 52.375 C 67.15625 55.578125 64.03125 60.453125 61.625 63.25 C 59.21875 66.453125 56.453125 69.21875 53.25 71.625 C 66.453125 74.828125 79.546875 72.40625 90.75 70 C 95.546875 69.203125 96.421875 67.21875 95.625 65.625 C 93.171875 60.03125 86.15625 52.234375 74.25 52 Z M 93.25 74 C 92.6875 74.03125 92.046875 74.125 91.25 74.375 C 80.84375 77.578125 64.046875 80.375 49.25 74.375 C 43.25 77.96875 35.96875 80.421875 28.375 81.625 C 33.578125 86.828125 41.625 91.546875 51.625 94.75 C 68.421875 99.953125 88.453125 91.21875 95.25 79.625 C 95.953125 78.21875 97.21875 73.75 93.25 74 Z M 93.25 74 "/>
  </g>
</svg>
